<svg xmlns="http://www.w3.org/2000/svg" width="224" height="46" fill="none" viewBox="0 0 224 46"><path fill="url(#paint0_linear_0_247)" d="M22.9621 2.14837C22.9032 2.3663 22.8 2.57061 22.6586 2.74931C22.5172 2.928 22.3404 3.07753 22.1387 3.18903L4.061 13.2206L3.9864 35.6584L0.5 33.6759V11.3263L20.385 0.230265C20.6508 0.0795886 20.953 -2.94163e-05 21.2608 8.15284e-09C21.5681 0.000648752 21.8699 0.0792485 22.1363 0.227953C22.4027 0.376657 22.6244 0.590585 22.7795 0.84805C22.8981 1.04191 22.9754 1.25666 23.0067 1.48004C23.0381 1.70342 23.0229 1.93079 22.9621 2.14837Z"/><path fill="#00D3BE" d="M22.9621 2.14837C22.9032 2.3663 22.8 2.57061 22.6586 2.74931C22.5172 2.928 22.3404 3.07753 22.1387 3.18903L4.061 13.2206L3.9864 35.6584L0.5 33.6759V11.3263L20.385 0.230265C20.6508 0.0795886 20.953 -2.94163e-05 21.2608 8.15284e-09C21.5681 0.000648752 21.8699 0.0792485 22.1363 0.227953C22.4027 0.376657 22.6244 0.590585 22.7795 0.84805C22.8981 1.04191 22.9754 1.25666 23.0067 1.48004C23.0381 1.70342 23.0229 1.93079 22.9621 2.14837Z"/><path fill="#00D3BE" d="M13.7738 19.023L20.6922 15.052L26.9587 18.6104L20.0968 22.5447L13.7738 19.023Z"/><path fill="#00EBD3" d="M20.0968 30.2216L26.9587 26.4795V18.6108L20.0968 22.5452V30.2216Z"/><path fill="#00B8A5" d="M13.7738 19.0232V26.7267L20.0968 30.2206V22.5446L13.7738 19.0232Z"/><path fill="url(#paint1_linear_0_247)" d="M40.2014 11.381V33.6758L20.368 45.0107L12.9204 40.703V36.8734L20.4064 41.1285L36.7394 31.9596V13.2423L23.2436 5.6277L26.6268 3.76245L40.2014 11.381Z"/><path fill="#00D3BE" d="M40.2014 11.381V33.6758L20.368 45.0107L12.9204 40.703V36.8734L20.4064 41.1285L36.7394 31.9596V13.2423L23.2436 5.6277L26.6268 3.76245L40.2014 11.381Z"/><path fill="url(#paint2_linear_0_247)" d="M20.3687 7.50659L6.91121 15.066V42.7441C6.9188 43.161 7.09453 43.5586 7.40063 43.8512C7.70673 44.1438 8.11882 44.3083 8.54852 44.3094C8.97822 44.3106 9.39129 44.1481 9.69905 43.8571C10.0068 43.5662 10.1848 43.1699 10.1947 42.753L10.238 32.2794L20.4071 37.8613L33.9099 30.2447V15.0142L20.3687 7.50659ZM30.443 28.4376L20.4092 34.0852L10.1473 28.3279V17.0344L20.3687 11.3937L30.443 17.037V28.4376Z"/><path fill="#00D3BE" d="M20.3687 7.50659L6.91121 15.066V42.7441C6.9188 43.161 7.09453 43.5586 7.40063 43.8512C7.70673 44.1438 8.11882 44.3083 8.54852 44.3094C8.97822 44.3106 9.39129 44.1481 9.69905 43.8571C10.0068 43.5662 10.1848 43.1699 10.1947 42.753L10.238 32.2794L20.4071 37.8613L33.9099 30.2447V15.0142L20.3687 7.50659ZM30.443 28.4376L20.4092 34.0852L10.1473 28.3279V17.0344L20.3687 11.3937L30.443 17.037V28.4376Z"/><path fill="#F1F4F6" d="M53.4211 19.7752L58.2589 18.5079V20.47H67.191C67.613 20.513 68.0385 20.4288 68.4094 20.2288C68.7803 20.0288 69.0787 19.7228 69.264 19.3523C69.3622 19.1241 69.4143 18.8798 69.4174 18.6325C69.4279 18.2922 69.3271 17.9572 69.1292 17.6761C68.9314 17.3949 68.6469 17.182 68.3164 17.0675C67.9576 16.9322 67.5753 16.865 67.1903 16.8693H53.4211L54.7265 12.6743H67.2426C69.8704 12.6743 71.867 13.4606 73.2322 15.0335C74.0759 15.9583 74.5404 17.1515 74.5375 18.3867C74.5343 19.1197 74.3487 19.8412 73.9967 20.4898C73.6447 21.1383 73.1365 21.695 72.5154 22.1122C72.3643 22.2427 72.2009 22.3589 72.0273 22.4598C72.7846 22.8101 73.4472 23.3272 73.9626 23.9695C74.478 24.6119 74.8319 25.3619 74.9963 26.1602C75.0454 26.4055 75.0711 26.6547 75.0731 26.9045C75.0829 27.6772 74.9022 28.441 74.5461 29.1322C74.1899 29.8234 73.6687 30.4221 73.0258 30.8782C71.5113 31.9616 69.6583 32.5053 67.7788 32.418H53.4211V19.7752ZM58.2589 24.6425V28.219H67.7286C68.1505 28.262 68.5759 28.1777 68.9468 27.9779C69.3177 27.778 69.6162 27.4723 69.8016 27.1021C69.8997 26.8736 69.9518 26.6287 69.955 26.3812C69.9627 26.0447 69.8603 25.7147 69.6627 25.438C69.465 25.1614 69.1822 24.9525 68.8547 24.8414C68.4958 24.7061 68.1136 24.6389 67.7286 24.6432L58.2589 24.6425Z"/><path fill="#F1F4F6" d="M77.6083 12.6719H82.4461V28.2192H96.7501L95.4447 32.4139H77.6083V12.6719Z"/><path fill="#F1F4F6" d="M121.503 22.5569C121.503 26.4306 119.959 29.2618 116.871 31.0507C114.543 32.3071 111.906 32.9253 109.243 32.8389C105.54 32.8389 102.605 31.8785 100.439 29.9575C98.3738 28.1199 97.3414 25.653 97.3414 22.5569C97.3414 18.8979 98.7405 16.141 101.539 14.2862C103.837 12.8693 106.522 12.1596 109.243 12.2498C113.27 12.2498 116.385 13.2679 118.587 15.3044C120.532 17.1095 121.504 19.5272 121.503 22.5569ZM102.461 22.5569C102.461 25.3878 103.527 27.2009 105.66 27.9961C106.893 28.4128 108.194 28.6062 109.499 28.567C113.134 28.567 115.327 27.3584 116.077 24.9412C116.291 24.1639 116.394 23.362 116.384 22.5576C116.384 19.3289 114.951 17.3998 112.084 16.7706C111.234 16.5971 110.367 16.514 109.498 16.5225C106.205 16.5225 104.081 17.4332 103.125 19.2546C102.648 20.2921 102.421 21.4214 102.461 22.5569Z"/><path fill="#F1F4F6" d="M131 12.672H144.053L142.748 16.8666H131.592C130.124 16.8666 129.006 17.6617 128.238 19.2512C127.749 20.3305 127.505 21.4992 127.522 22.6781C127.522 24.6321 128.033 26.1306 129.056 27.1734C129.38 27.5086 129.773 27.7744 130.209 27.9541C130.646 28.1337 131.116 28.2232 131.59 28.2167H144.054L142.749 32.4114H131C129.697 32.4445 128.407 32.1513 127.255 31.5597C126.103 30.9681 125.127 30.0982 124.422 29.034C123.047 27.0756 122.339 24.7474 122.4 22.3781C122.311 19.9285 123.098 17.5247 124.627 15.5733C125.381 14.6399 126.351 13.8911 127.458 13.3872C128.564 12.8834 129.778 12.6384 131 12.672Z"/><path fill="#F1F4F6" d="M159.307 12.6718H165.988L154.982 22.308L166.5 32.4162H159.307L151.014 24.8904V32.4162H146.177V13.4419L151.014 12.1753V20.2471L159.307 12.6718Z"/><path fill="#00D3BE" d="M168.548 19.7753L173.385 18.508V21.9858H182.856C183.3 22.0001 183.737 21.8713 184.098 21.6197C184.459 21.3681 184.724 21.0077 184.852 20.5946C185.005 20.2148 185.083 19.8102 185.082 19.4023C185.117 18.9778 185.04 18.5518 184.857 18.1647C184.674 17.7777 184.391 17.4428 184.036 17.1921C183.683 16.9786 183.275 16.8666 182.859 16.8694H168.552L169.857 12.6744H182.655C183.813 12.6171 184.969 12.8307 186.025 13.2975C187.081 13.7642 188.005 14.4703 188.721 15.3563C189.698 16.5774 190.221 18.0827 190.206 19.6283C190.236 20.526 190.061 21.419 189.694 22.2435C189.326 23.0679 188.776 23.8035 188.081 24.3971C186.569 25.6342 184.631 26.2728 182.655 26.1854H173.383V32.4187H168.546L168.548 19.7753Z"/><path fill="#00D3BE" d="M192.325 12.6716H197.163V32.416H192.326L192.325 12.6716Z"/><path fill="#00D3BE" d="M211.189 20.0479L217.613 12.6731H223.244L214.695 22.4334L223.5 32.4174H217.87L211.189 24.7678L204.508 32.4174H198.878L207.682 22.4334L199.134 12.6731H204.764L211.189 20.0479Z"/><defs><linearGradient id="paint0_linear_0_247" x1=".5" x2="23.023" y1="17.829" y2="17.829" gradientUnits="userSpaceOnUse"><stop stop-color="#0057C2"/><stop offset="1" stop-color="#0097FB"/></linearGradient><linearGradient id="paint1_linear_0_247" x1="12.92" x2="40.201" y1="24.387" y2="24.387" gradientUnits="userSpaceOnUse"><stop stop-color="#0057C2"/><stop offset="1" stop-color="#0097FB"/></linearGradient><linearGradient id="paint2_linear_0_247" x1="6.911" x2="33.91" y1="25.908" y2="25.908" gradientUnits="userSpaceOnUse"><stop stop-color="#0057C2"/><stop offset="1" stop-color="#0097FB"/></linearGradient></defs></svg>