<svg xmlns="http://www.w3.org/2000/svg" width="224" height="47" fill="none" viewBox="0 0 224 47"><path fill="#fff" d="M54.8419 23.3992C54.8718 15.0016 61.3731 9.16918 69.3888 9.19491C74.3758 9.19491 78.1953 11.0655 80.5787 14.6377L78.2848 16.2658C76.4646 13.6013 73.4358 11.8557 69.3664 11.8557C62.7569 11.8336 57.9602 16.7729 57.9378 23.4065C57.9154 30.04 62.6786 35.0125 69.2844 35.0345C73.3873 35.0345 76.5653 33.2962 78.6093 30.3965L80.9293 32.0026C78.4228 35.5968 74.3422 37.7136 69.2732 37.6953C61.25 37.6695 54.7897 31.7931 54.8158 23.3992"/><path fill="#fff" d="M82.3692 7.85718H85.2785L85.2263 23.7887C85.7734 22.656 86.6437 21.7051 87.7309 21.0524C88.818 20.3996 90.0748 20.0734 91.3472 20.1136C95.1704 20.1136 97.7814 22.7119 97.7665 27.1367L97.7329 37.4564H94.8235L94.8571 27.4638C94.8571 24.476 93.4584 22.7523 90.59 22.7413C87.3897 22.7413 85.2226 24.7295 85.2114 28.0886L85.1778 37.4233H82.2685L82.3692 7.85718Z"/><path fill="#fff" d="M108.647 35.4209C111.224 35.4209 112.974 34.4139 114.1 33.1864L115.879 34.9137C114.294 36.6704 112.004 37.8538 108.639 37.8538C102.985 37.8354 99.3405 33.9729 99.3591 29.0335C99.3406 27.8727 99.5585 26.72 99.9999 25.6435C100.441 24.5671 101.097 23.5888 101.929 22.7665C102.761 21.9442 103.752 21.2945 104.843 20.856C105.934 20.4175 107.103 20.1989 108.281 20.2133C113.809 20.2317 117.121 24.4176 116.894 30.0295L102.265 29.978C102.638 33.2158 104.876 35.4356 108.647 35.4466M113.973 27.8097C113.734 24.9027 111.873 22.6021 108.255 22.5911C104.973 22.5911 102.765 24.6639 102.287 27.773L113.973 27.8097Z"/><path fill="#fff" d="M118.292 29.0664C118.276 27.9036 118.496 26.7494 118.94 25.6719C119.384 24.5944 120.043 23.6155 120.878 22.7932C121.712 21.9709 122.706 21.3218 123.799 20.8843C124.893 20.4469 126.064 20.2299 127.244 20.2462C130.318 20.2462 132.437 21.4075 134.011 23.2965L131.926 24.9687C130.889 23.6163 129.397 22.7931 127.237 22.7857C123.578 22.7857 121.269 25.4685 121.269 29.0701C121.269 32.6717 123.533 35.3839 127.188 35.3986C128.132 35.4378 129.071 35.2588 129.931 34.8759C130.791 34.4929 131.548 33.9168 132.142 33.1936L134.13 34.8804C132.504 36.7988 130.4 37.8977 127.181 37.8867C126.003 37.9021 124.834 37.6842 123.743 37.2459C122.653 36.8075 121.663 36.1577 120.832 35.335C120.001 34.5122 119.346 33.5334 118.907 32.4566C118.468 31.3797 118.252 30.2269 118.274 29.0664"/><path fill="#fff" d="M138.341 37.6072H135.432L135.532 8.03735H138.442L138.375 26.9972C138.373 27.8067 138.301 28.6145 138.158 29.4117L146.364 20.676H149.721L143.112 27.8094L150.725 37.6623H147.274L141.068 29.6984L138.356 32.4731L138.341 37.6072Z"/><path fill="#fff" d="M152.239 20.7017H155.148L155.055 23.8954C156.174 21.6058 158.058 20.3416 160.467 20.3526C163.171 20.3526 164.91 21.8006 165.652 23.9322C166.95 21.6426 169.113 20.3783 171.62 20.3894C175.402 20.3894 177.722 22.8664 177.707 26.8796L177.651 37.7321H174.783L174.82 27.2471C174.82 24.5459 173.753 23.0281 171.053 23.0171C168.352 23.006 166.431 24.8546 166.42 28.2026L166.387 37.7027H163.477L163.515 27.2177C163.515 24.5165 162.448 22.9987 159.785 22.9877C157.039 22.9877 155.122 24.8252 155.111 28.1732L155.077 37.6733H152.168L152.239 20.7017Z"/><path fill="#fff" d="M191.038 27.42C191.038 24.1455 189.546 22.8702 187.021 22.8629C186.041 22.8235 185.067 23.0261 184.187 23.4523C183.307 23.8785 182.549 24.5147 181.982 25.3031L180.203 23.7008C181.695 21.6978 183.955 20.4373 187.237 20.4483C191.061 20.4483 193.951 22.6791 193.951 27.3906L193.914 37.7911H191.005L191.139 35.2553C189.968 36.9715 188.177 38.1108 185.436 38.1035C181.777 38.1035 179.125 36.4423 179.136 32.9216C179.147 29.4008 182.06 27.8132 185.678 27.8242L191.038 27.8426V27.42ZM185.876 29.9925C183.671 29.9925 181.963 30.757 181.959 32.804C181.959 34.7297 183.403 35.7441 186.103 35.7661C188.804 35.7882 191.012 34.3475 191.019 32.1388V30.0072L185.876 29.9925Z"/><path fill="#fff" d="M197.379 32.6827L197.413 23.2634H194.753V20.8489H197.413L197.442 12.0029H200.311L200.281 20.8489H205.1V23.2634H200.277L200.247 32.7231C200.247 34.976 201.027 35.6632 202.273 35.6632C202.709 35.6694 203.141 35.586 203.543 35.4183C203.944 35.2506 204.305 35.0023 204.604 34.6893L206.178 36.4974C205.634 37.0484 204.979 37.4811 204.255 37.7678C203.531 38.0546 202.754 38.1889 201.974 38.1623C199.363 38.1623 197.364 36.6702 197.379 32.6496"/><path fill="#fff" d="M215.242 35.7732C217.819 35.7732 219.569 34.7625 220.695 33.5387L222.474 35.266C220.889 37.019 218.599 38.2061 215.234 38.1877C209.58 38.1693 205.936 34.3105 205.954 29.3675C205.936 28.2068 206.154 27.0543 206.596 25.9781C207.038 24.9018 207.694 23.9238 208.525 23.1015C209.357 22.2793 210.348 21.6297 211.438 21.191C212.529 20.7522 213.698 20.5334 214.876 20.5473C220.404 20.5656 223.716 24.7552 223.489 30.3634L208.86 30.3157C209.233 33.5534 211.471 35.7732 215.242 35.7842M220.587 28.1768C220.348 25.2698 218.487 22.9691 214.869 22.9581C211.586 22.9581 209.375 25.0272 208.901 28.14L220.587 28.1768Z"/><path fill="url(#paint0_linear_0_223)" d="M48.2213 30.5989H32.3129V46.0159H48.2213V30.5989Z"/><path fill="url(#paint1_linear_0_223)" d="M48.2213 0H32.3129V15.417H48.2213V0Z"/><path fill="url(#paint2_linear_0_223)" d="M16.4083 0H0.5V15.417H16.4083V0Z"/><path fill="url(#paint3_linear_0_223)" d="M16.4083 30.5989H0.5V46.0159H16.4083V30.5989Z"/><path fill="url(#paint4_linear_0_223)" d="M32.3129 12.3118H16.4046V30.599H32.3129V12.3118Z"/><defs><linearGradient id="paint0_linear_0_223" x1="-.653" x2="50.736" y1="38.566" y2="38.566" gradientUnits="userSpaceOnUse"><stop stop-color="#E7BB4C"/><stop offset=".23" stop-color="#F1C957"/><stop offset=".48" stop-color="#FCF4BD"/><stop offset=".74" stop-color="#E7BB4C"/><stop offset="1" stop-color="#C48519"/></linearGradient><linearGradient id="paint1_linear_0_223" x1="-.653" x2="50.736" y1="8.249" y2="8.249" gradientUnits="userSpaceOnUse"><stop stop-color="#E7BB4C"/><stop offset=".23" stop-color="#F1C957"/><stop offset=".48" stop-color="#FCF4BD"/><stop offset=".74" stop-color="#E7BB4C"/><stop offset="1" stop-color="#C48519"/></linearGradient><linearGradient id="paint2_linear_0_223" x1="-.657" x2="50.733" y1="8.87" y2="8.87" gradientUnits="userSpaceOnUse"><stop stop-color="#E7BB4C"/><stop offset=".23" stop-color="#F1C957"/><stop offset=".48" stop-color="#FCF4BD"/><stop offset=".74" stop-color="#E7BB4C"/><stop offset="1" stop-color="#C48519"/></linearGradient><linearGradient id="paint3_linear_0_223" x1="-.657" x2="50.733" y1="39.187" y2="39.187" gradientUnits="userSpaceOnUse"><stop stop-color="#E7BB4C"/><stop offset=".23" stop-color="#F1C957"/><stop offset=".48" stop-color="#FCF4BD"/><stop offset=".74" stop-color="#E7BB4C"/><stop offset="1" stop-color="#C48519"/></linearGradient><linearGradient id="paint4_linear_0_223" x1="-.657" x2="50.733" y1="22.977" y2="22.977" gradientUnits="userSpaceOnUse"><stop stop-color="#E7BB4C"/><stop offset=".23" stop-color="#F1C957"/><stop offset=".48" stop-color="#FCF4BD"/><stop offset=".74" stop-color="#E7BB4C"/><stop offset="1" stop-color="#C48519"/></linearGradient></defs></svg>