<svg width="181" height="261" viewBox="0 0 181 261" fill="none" xmlns="http://www.w3.org/2000/svg">
<path d="M24.2419 230.23C12.3919 209.02 8.64194 175.64 10.5119 165.35C10.5119 165.35 27.0419 212.45 34.8419 225.87C39.5819 234.03 39.0219 241.73 35.1819 241.73C32.7119 241.73 28.8819 238.54 24.2419 230.24M22.6819 33.4C41.0819 6.26 38.5919 45.25 32.0419 61.47L8.96194 127.29C8.96194 127.29 -3.87806 72.57 22.6819 33.4ZM48.2619 0.02C33.9119 0.95 -17.5581 42.13 6.15194 146.32C6.15194 146.32 -4.49806 233.2 41.7119 259.87C49.8219 264.55 68.8519 252.07 52.3219 226.8C35.7919 201.53 13.0119 165.03 13.6419 148.19C13.6419 148.19 15.6319 124.67 47.6419 72.7C71.3419 34.22 62.8519 0 48.8319 0C48.6419 0 48.4519 0 48.2619 0.02Z" fill="url(#paint0_radial_6_748)"/>
<path d="M38.512 137.36L38.532 112.84H44.642V115.21H44.762C45.402 114.44 46.172 113.8 47.072 113.3C47.972 112.8 49.122 112.55 50.512 112.55C51.832 112.55 52.922 112.81 53.802 113.33C54.682 113.85 55.402 114.41 55.952 115.02C56.712 114.34 57.552 113.76 58.472 113.28C59.392 112.8 60.672 112.56 62.302 112.56C63.062 112.56 63.842 112.67 64.632 112.88C65.432 113.09 66.152 113.44 66.792 113.92C67.432 114.4 67.952 115.03 68.352 115.78C68.752 116.54 68.952 117.47 68.952 118.56V137.37H62.832V120.39C62.842 119.49 62.582 118.78 62.062 118.26C61.542 117.74 60.802 117.49 59.852 117.48C58.692 117.48 57.892 117.77 57.452 118.35C57.012 118.93 56.792 119.77 56.792 120.86V137.35H50.672V120.37C50.682 119.47 50.422 118.76 49.902 118.24C49.382 117.72 48.642 117.47 47.692 117.46C46.532 117.46 45.732 117.75 45.292 118.33C44.852 118.91 44.632 119.75 44.632 120.84V137.33H38.512V137.36Z" fill="white"/>
<path d="M90.432 126.99H78.342V130.32C78.342 131.09 78.612 131.69 79.152 132.11C79.692 132.53 80.422 132.74 81.332 132.74C82.492 132.74 83.262 132.47 83.642 131.92C84.022 131.37 84.252 130.82 84.332 130.28H90.442C90.442 132.44 89.622 134.18 87.982 135.51C87.182 136.19 86.222 136.72 85.102 137.1C83.982 137.49 82.722 137.68 81.332 137.68C79.412 137.68 77.792 137.36 76.452 136.71C75.112 136.06 74.092 135.21 73.372 134.15C72.932 133.5 72.632 132.76 72.472 131.92C72.312 131.08 72.232 130.16 72.232 129.16V121.08C72.232 120.08 72.322 119.16 72.482 118.32C72.642 117.48 72.942 116.74 73.382 116.1C74.102 115.04 75.132 114.18 76.472 113.54C77.812 112.9 79.432 112.57 81.352 112.58C82.752 112.58 84.012 112.77 85.152 113.16C86.292 113.55 87.252 114.08 88.052 114.76C89.652 116.21 90.442 118.03 90.442 120.23V127L90.432 126.99ZM78.332 123.11H84.322V120.31C84.322 119.37 84.052 118.67 83.512 118.21C82.972 117.74 82.242 117.51 81.322 117.51C80.402 117.51 79.672 117.74 79.132 118.21C78.592 118.68 78.322 119.38 78.322 120.31V123.12L78.332 123.11Z" fill="white"/>
<path d="M94.932 112.87V105.42H101.042V112.87H104.812V116.74H101.042V130.33C101.042 130.91 101.102 131.36 101.242 131.68C101.382 132 101.612 132.24 101.932 132.41C102.252 132.57 102.642 132.67 103.102 132.7C103.562 132.73 104.132 132.75 104.812 132.75V137.39H102.292C100.892 137.39 99.732 137.21 98.792 136.85C97.852 136.5 97.102 136.04 96.552 135.49C95.992 134.94 95.582 134.32 95.322 133.63C95.062 132.94 94.932 132.27 94.932 131.62V116.72H91.892V112.85H94.952L94.932 112.87Z" fill="white"/>
<path d="M107.132 137.4L116.672 102.97H121.762L131.262 137.41H125.152L123.362 130.01H115.042L113.242 137.4H107.132ZM122.232 125.36L119.242 112.88H119.122L116.122 125.36H122.232Z" fill="white"/>
<path d="M143.792 119.77C143.752 118.93 143.422 118.3 142.802 117.88C142.182 117.46 141.472 117.25 140.682 117.25C139.722 117.25 138.982 117.5 138.462 118C137.942 118.5 137.682 119.07 137.682 119.72C137.682 120.17 137.822 120.62 138.102 121.05C138.382 121.49 139.102 121.88 140.252 122.24L143.842 123.4C146.112 124.11 147.682 125.08 148.542 126.31C149.402 127.54 149.832 128.87 149.822 130.32C149.822 131.35 149.592 132.31 149.132 133.2C148.672 134.09 148.042 134.87 147.242 135.54C146.442 136.22 145.482 136.75 144.362 137.13C143.242 137.52 142.022 137.71 140.712 137.71C138.232 137.71 136.162 137.08 134.482 135.82C133.642 135.21 132.962 134.44 132.452 133.52C131.932 132.6 131.652 131.53 131.612 130.3H137.362C137.482 130.98 137.772 131.61 138.232 132.19C138.692 132.77 139.502 133.06 140.652 133.06C141.532 133.06 142.322 132.83 143.022 132.36C143.722 131.89 144.072 131.24 144.072 130.4C144.072 129.72 143.852 129.14 143.412 128.66C142.972 128.18 142.172 127.76 141.022 127.4L138.092 126.53C136.172 125.95 134.672 125.09 133.572 123.94C132.472 122.8 131.922 121.4 131.932 119.76C131.932 118.73 132.172 117.77 132.652 116.88C133.132 115.99 133.792 115.23 134.632 114.58C135.432 113.94 136.372 113.44 137.442 113.11C138.522 112.77 139.682 112.6 140.912 112.6C142.152 112.6 143.292 112.78 144.352 113.13C145.412 113.49 146.312 113.99 147.072 114.63C147.832 115.28 148.432 116.04 148.862 116.93C149.302 117.82 149.522 118.76 149.522 119.76H143.772L143.792 119.77Z" fill="white"/>
<path d="M152.582 137.43L152.602 112.91H158.712L158.692 137.43H152.582ZM152.602 107.92V102.99H158.712V107.93H152.602V107.92Z" fill="white"/>
<path d="M174.072 137.44V134.92H173.952C173.152 135.82 172.342 136.52 171.522 137C170.702 137.48 169.552 137.72 168.082 137.72C167.362 137.72 166.632 137.63 165.892 137.45C165.152 137.27 164.442 136.94 163.772 136.46C163.092 136.01 162.542 135.36 162.122 134.5C161.702 133.65 161.492 132.54 161.492 131.19C161.492 129.8 161.632 128.59 161.912 127.54C162.192 126.49 162.712 125.61 163.472 124.9C164.192 124.22 165.172 123.72 166.402 123.38C167.642 123.04 169.212 122.87 171.132 122.88C171.332 122.88 171.552 122.88 171.792 122.88C172.032 122.88 172.252 122.9 172.452 122.93C172.652 122.96 172.892 122.98 173.172 122.98C173.452 122.98 173.752 123 174.072 123.03V120.47C174.072 119.63 173.852 118.94 173.412 118.39C172.972 117.84 172.172 117.57 171.022 117.57C170.222 117.57 169.492 117.78 168.832 118.2C168.172 118.62 167.742 119.23 167.542 120.04H161.612C161.772 117.84 162.692 116.07 164.372 114.72C165.172 114.08 166.132 113.57 167.252 113.2C168.372 112.83 169.622 112.65 171.022 112.65C172.302 112.65 173.492 112.81 174.612 113.14C175.732 113.46 176.712 113.95 177.542 114.59C178.342 115.24 178.982 116.04 179.452 117.01C179.932 117.98 180.172 119.11 180.172 120.4V137.47H174.052L174.072 137.44ZM174.072 126.89C173.392 126.79 172.832 126.74 172.392 126.74C171.072 126.74 169.942 126.99 169.012 127.49C168.072 127.99 167.602 128.9 167.602 130.22C167.602 131.16 167.882 131.91 168.442 132.49C169.002 133.07 169.782 133.36 170.772 133.36C171.812 133.36 172.622 133.09 173.202 132.54C173.782 131.99 174.072 131.22 174.072 130.22V126.88V126.89Z" fill="white"/>
<path d="M58.252 169.45V171.58C58.252 172.64 58.002 173.65 57.502 174.6C57.002 175.55 56.312 176.4 55.432 177.14C54.552 177.88 53.522 178.47 52.352 178.9C51.172 179.33 49.902 179.55 48.552 179.55C47.392 179.55 46.222 179.42 45.022 179.16C43.822 178.9 42.742 178.45 41.792 177.8C40.832 177.15 40.042 176.32 39.432 175.31C38.812 174.29 38.502 173 38.502 171.42V152.46C38.512 151.33 38.752 150.28 39.232 149.32C39.712 148.35 40.392 147.52 41.272 146.81C42.152 146.1 43.202 145.55 44.412 145.14C45.632 144.74 46.972 144.54 48.452 144.54C51.322 144.54 53.662 145.3 55.452 146.82C56.332 147.56 57.022 148.44 57.512 149.46C58.012 150.48 58.262 151.58 58.262 152.77V154.7H52.152V153.05C52.152 152.08 51.812 151.24 51.132 150.53C50.452 149.82 49.532 149.47 48.382 149.46C46.862 149.46 45.852 149.84 45.362 150.59C44.862 151.35 44.612 152.31 44.612 153.47V171.07C44.602 172.07 44.872 172.91 45.412 173.59C45.952 174.27 46.922 174.61 48.312 174.61C48.712 174.61 49.142 174.55 49.602 174.44C50.062 174.33 50.492 174.14 50.892 173.88C51.252 173.62 51.552 173.27 51.792 172.82C52.032 172.37 52.152 171.8 52.152 171.13V169.44H58.262L58.252 169.45Z" fill="white"/>
<path d="M79.332 168.88H67.2419V172.21C67.2419 172.98 67.512 173.58 68.042 174C68.582 174.42 69.312 174.63 70.222 174.63C71.382 174.63 72.1519 174.36 72.5319 173.81C72.9119 173.26 73.142 172.71 73.222 172.17H79.332C79.332 174.33 78.512 176.07 76.872 177.4C76.072 178.08 75.1119 178.61 73.9919 178.99C72.8719 179.38 71.612 179.57 70.222 179.57C68.302 179.57 66.6819 179.25 65.3419 178.6C64.0019 177.95 62.9819 177.1 62.2619 176.04C61.8219 175.39 61.5219 174.65 61.3619 173.81C61.2019 172.97 61.1219 172.05 61.1219 171.05V162.97C61.1219 161.97 61.2119 161.05 61.3719 160.21C61.5319 159.37 61.8319 158.63 62.2719 157.99C62.9919 156.93 64.0219 156.07 65.3619 155.43C66.702 154.79 68.3219 154.46 70.2419 154.47C71.6419 154.47 72.9019 154.66 74.042 155.05C75.182 155.44 76.142 155.97 76.942 156.65C78.542 158.1 79.332 159.92 79.332 162.12V168.89V168.88ZM67.232 165H73.222V162.2C73.222 161.26 72.952 160.56 72.412 160.1C71.872 159.63 71.142 159.4 70.222 159.4C69.302 159.4 68.5719 159.63 68.0319 160.1C67.4919 160.57 67.222 161.27 67.222 162.2V165.01L67.232 165Z" fill="white"/>
<path d="M82.282 144.85H88.392L88.372 172.37C88.372 173.31 88.582 173.94 89.002 174.28C89.422 174.62 90.212 174.84 91.362 174.93V179.57C89.962 179.57 88.702 179.48 87.582 179.3C86.462 179.12 85.502 178.77 84.712 178.26C83.912 177.78 83.302 177.09 82.892 176.2C82.472 175.31 82.262 174.14 82.262 172.69L82.282 144.83V144.85Z" fill="white"/>
<path d="M111.422 168.9H99.3319V172.23C99.3319 173 99.6019 173.6 100.132 174.02C100.672 174.44 101.402 174.65 102.312 174.65C103.472 174.65 104.242 174.38 104.622 173.83C105.002 173.28 105.232 172.73 105.312 172.19H111.422C111.422 174.35 110.602 176.09 108.962 177.42C108.162 178.1 107.202 178.63 106.082 179.01C104.962 179.4 103.702 179.59 102.312 179.59C100.392 179.59 98.7719 179.27 97.4319 178.62C96.0919 177.97 95.0719 177.12 94.3519 176.06C93.9119 175.41 93.6119 174.67 93.4519 173.83C93.2919 172.99 93.2119 172.07 93.2119 171.07V162.99C93.2119 161.99 93.3019 161.07 93.4619 160.23C93.6219 159.39 93.9219 158.65 94.3619 158.01C95.0819 156.95 96.1119 156.09 97.4519 155.45C98.7919 154.81 100.412 154.48 102.332 154.49C103.732 154.49 104.992 154.69 106.132 155.07C107.272 155.45 108.232 155.99 109.032 156.67C110.632 158.12 111.422 159.94 111.422 162.14V168.91V168.9ZM99.3219 165.02H105.312V162.22C105.312 161.28 105.042 160.58 104.502 160.12C103.962 159.65 103.232 159.42 102.312 159.42C101.392 159.42 100.662 159.65 100.122 160.12C99.5819 160.59 99.3119 161.29 99.3119 162.22V165.03L99.3219 165.02Z" fill="white"/>
<path d="M114.712 179.3L114.732 144.86H120.842V157H120.952C121.632 156.19 122.442 155.57 123.382 155.14C124.322 154.71 125.392 154.49 126.582 154.49C128.062 154.49 129.202 154.7 130.022 155.12C130.842 155.54 131.512 156.07 132.022 156.72C132.422 157.24 132.682 157.91 132.802 158.75C132.922 159.59 132.982 160.89 132.982 162.67V172C132.982 173.35 132.892 174.43 132.732 175.24C132.572 176.05 132.312 176.72 131.952 177.27C130.912 178.82 129.132 179.59 126.622 179.59C125.102 179.59 123.952 179.35 123.152 178.86C122.352 178.38 121.572 177.78 120.822 177.07V179.29H114.712V179.3ZM126.882 162.33C126.882 161.56 126.672 160.88 126.252 160.3C125.832 159.72 125.042 159.43 123.892 159.43C123.012 159.43 122.282 159.68 121.702 160.18C121.122 160.68 120.832 161.32 120.832 162.09V171.62C120.832 172.52 121.102 173.26 121.662 173.82C122.222 174.38 122.962 174.67 123.872 174.67C124.912 174.67 125.672 174.37 126.152 173.75C126.632 173.14 126.872 172.33 126.872 171.33V162.33H126.882Z" fill="white"/>
<path d="M147.892 161.67C147.852 160.83 147.522 160.2 146.902 159.78C146.282 159.36 145.572 159.15 144.782 159.15C143.822 159.15 143.082 159.4 142.562 159.9C142.042 160.4 141.782 160.97 141.782 161.62C141.782 162.07 141.922 162.52 142.202 162.95C142.482 163.39 143.202 163.78 144.352 164.14L147.942 165.3C150.212 166.01 151.782 166.98 152.642 168.2C153.502 169.43 153.932 170.76 153.922 172.22C153.922 173.25 153.692 174.21 153.232 175.1C152.772 175.99 152.142 176.77 151.342 177.44C150.542 178.12 149.582 178.65 148.462 179.03C147.342 179.42 146.122 179.61 144.812 179.61C142.332 179.61 140.262 178.98 138.582 177.72C137.742 177.11 137.062 176.34 136.552 175.42C136.032 174.5 135.752 173.43 135.712 172.2H141.462C141.582 172.88 141.872 173.51 142.332 174.09C142.792 174.67 143.602 174.96 144.752 174.96C145.632 174.96 146.422 174.73 147.122 174.26C147.822 173.79 148.172 173.14 148.172 172.3C148.172 171.62 147.952 171.04 147.512 170.56C147.072 170.08 146.272 169.66 145.122 169.3L142.192 168.43C140.272 167.85 138.772 166.99 137.672 165.84C136.572 164.7 136.022 163.3 136.032 161.66C136.032 160.63 136.272 159.67 136.752 158.78C137.232 157.89 137.892 157.13 138.732 156.48C139.532 155.84 140.472 155.34 141.542 155.01C142.622 154.67 143.782 154.5 145.012 154.5C146.252 154.5 147.392 154.68 148.452 155.03C149.512 155.39 150.422 155.89 151.172 156.53C151.932 157.18 152.532 157.94 152.962 158.83C153.402 159.72 153.622 160.66 153.622 161.66H147.872L147.892 161.67Z" fill="white"/>
<defs>
<radialGradient id="paint0_radial_6_748" cx="0" cy="0" r="1" gradientUnits="userSpaceOnUse" gradientTransform="translate(31.2519 130.963) scale(62.06 157.012)">
<stop stop-color="#FFC501"/>
<stop offset="0.06" stop-color="#FFC501"/>
<stop offset="0.64" stop-color="#EA4420"/>
<stop offset="1" stop-color="#EA4420"/>
</radialGradient>
</defs>
</svg>
