<svg width="110" height="72" viewBox="0 0 110 72" fill="none" xmlns="http://www.w3.org/2000/svg">
<path d="M6.69157 63.551C3.42058 57.6964 2.38546 48.4824 2.90164 45.642C2.90164 45.642 7.46446 58.6432 9.61751 62.3475C10.9259 64.5999 10.7713 66.7254 9.71137 66.7254C9.02956 66.7254 7.97236 65.8448 6.69157 63.5538M6.26096 9.21949C11.34 1.72797 10.6526 12.4905 8.84462 16.9677L2.47379 35.1362C2.47379 35.1362 -1.07047 20.0317 6.26096 9.21949ZM13.3219 0.00552065C9.3608 0.262231 -4.8466 11.6293 1.69814 40.3891C1.69814 40.3891 -1.24161 64.3708 11.5139 71.7326C13.7525 73.0245 19.0054 69.5796 14.4426 62.6042C9.87975 55.6289 3.59172 45.5537 3.76562 40.9053C3.76562 40.9053 4.31493 34.413 13.1507 20.0676C19.6927 9.44584 17.3492 0 13.4792 0C13.4268 0 13.3743 0 13.3219 0.00552065Z" fill="url(#paint0_radial_195_377)"/>
<path d="M21.787 34.3618L21.7994 19.1309H25.5947V20.6031H25.6692C26.0668 20.1248 26.5451 19.7272 27.1041 19.4166C27.6632 19.1061 28.3775 18.9508 29.2409 18.9508C30.0609 18.9508 30.7379 19.1123 31.2845 19.4353C31.8312 19.7583 32.2784 20.1061 32.62 20.485C33.0921 20.0627 33.6139 19.7024 34.1854 19.4042C34.7568 19.1061 35.5519 18.957 36.5644 18.957C37.0365 18.957 37.521 19.0253 38.0117 19.1558C38.5087 19.2862 38.9559 19.5036 39.3534 19.8018C39.751 20.0999 40.074 20.4913 40.3225 20.9571C40.5709 21.4292 40.6951 22.0069 40.6951 22.684V34.368H36.8936V23.8207C36.8999 23.2616 36.7383 22.8206 36.4153 22.4976C36.0923 22.1746 35.6327 22.0193 35.0426 22.0131C34.322 22.0131 33.8251 22.1932 33.5518 22.5535C33.2785 22.9138 33.1418 23.4356 33.1418 24.1126V34.3556H29.3403V23.8083C29.3465 23.2492 29.185 22.8082 28.862 22.4852C28.539 22.1622 28.0794 22.0069 27.4893 22.0007C26.7687 22.0007 26.2718 22.1808 25.9985 22.5411C25.7252 22.9014 25.5885 23.4231 25.5885 24.1002V34.3432H21.787V34.3618Z" fill="white"/>
<path d="M54.0377 27.9203H46.5278V29.9888C46.5278 30.4671 46.6956 30.8398 47.031 31.1007C47.3664 31.3615 47.8199 31.492 48.3851 31.492C49.1057 31.492 49.584 31.3243 49.82 30.9826C50.056 30.641 50.1989 30.2994 50.2486 29.9639H54.0439C54.0439 31.3056 53.5345 32.3865 52.5158 33.2126C52.0189 33.635 51.4226 33.9642 50.7269 34.2003C50.0312 34.4425 49.2485 34.5605 48.3851 34.5605C47.1925 34.5605 46.1862 34.3618 45.3538 33.958C44.5215 33.5543 43.8879 33.0263 43.4407 32.3678C43.1674 31.9641 42.981 31.5044 42.8816 30.9826C42.7822 30.4609 42.7325 29.8894 42.7325 29.2682V24.2492C42.7325 23.6281 42.7884 23.0566 42.8878 22.5348C42.9872 22.0131 43.1736 21.5534 43.4469 21.1559C43.8941 20.4974 44.5339 19.9632 45.3663 19.5657C46.1986 19.1681 47.2049 18.9632 48.3975 18.9694C49.2672 18.9694 50.0498 19.0874 50.758 19.3297C51.4661 19.5719 52.0624 19.9011 52.5593 20.3235C53.5532 21.2242 54.0439 22.3547 54.0439 23.7213V27.9265L54.0377 27.9203ZM46.5216 25.5102H50.2424V23.771C50.2424 23.1871 50.0747 22.7522 49.7392 22.4665C49.4038 22.1746 48.9504 22.0317 48.3789 22.0317C47.8074 22.0317 47.354 22.1746 47.0186 22.4665C46.6831 22.7585 46.5154 23.1933 46.5154 23.771V25.5164L46.5216 25.5102Z" fill="white"/>
<path d="M56.833 19.1495V14.5219H60.6283V19.1495H62.9701V21.5534H60.6283V29.995C60.6283 30.3553 60.6656 30.6348 60.7526 30.8336C60.8395 31.0324 60.9824 31.1814 61.1812 31.287C61.3799 31.3864 61.6222 31.4485 61.9079 31.4672C62.1937 31.4858 62.5477 31.4982 62.9701 31.4982V34.3804H61.4048C60.5352 34.3804 59.8146 34.2686 59.2307 34.045C58.6468 33.8276 58.181 33.5419 57.8393 33.2002C57.4915 32.8586 57.2368 32.4735 57.0753 32.0449C56.9138 31.6163 56.833 31.2001 56.833 30.7963V21.541H54.9447V19.1371H56.8455L56.833 19.1495Z" fill="white"/>
<path d="M64.4111 34.3866L70.337 13H73.4987L79.3998 34.3928H75.6045L74.4926 29.7962H69.3245L68.2064 34.3866H64.4111ZM73.7907 26.9078L71.9334 19.1557H71.8589L69.9954 26.9078H73.7907Z" fill="white"/>
<path d="M87.1829 23.4356C87.1581 22.9138 86.9531 22.5225 86.568 22.2616C86.1829 22.0007 85.7418 21.8703 85.2511 21.8703C84.6548 21.8703 84.1952 22.0256 83.8721 22.3361C83.5491 22.6467 83.3876 23.0008 83.3876 23.4045C83.3876 23.6841 83.4746 23.9636 83.6485 24.2307C83.8225 24.504 84.2697 24.7463 84.984 24.9699L87.214 25.6904C88.624 26.1314 89.5992 26.734 90.1334 27.498C90.6676 28.262 90.9348 29.0882 90.9285 29.9889C90.9285 30.6287 90.7857 31.225 90.4999 31.7778C90.2142 32.3306 89.8229 32.8151 89.3259 33.2313C88.829 33.6537 88.2327 33.9829 87.537 34.219C86.8413 34.4612 86.0835 34.5792 85.2698 34.5792C83.7293 34.5792 82.4435 34.1879 81.3999 33.4053C80.8781 33.0263 80.4558 32.548 80.139 31.9766C79.816 31.4051 79.642 30.7405 79.6172 29.9764H83.1889C83.2634 30.3988 83.4435 30.7902 83.7293 31.1504C84.015 31.5107 84.5181 31.6908 85.2325 31.6908C85.7791 31.6908 86.2698 31.548 86.7046 31.256C87.1395 30.9641 87.3569 30.5603 87.3569 30.0385C87.3569 29.6162 87.2202 29.2559 86.9469 28.9577C86.6736 28.6596 86.1767 28.3987 85.4623 28.1751L83.6423 27.6347C82.4497 27.2744 81.5179 26.7402 80.8347 26.0258C80.1514 25.3177 79.8097 24.4481 79.816 23.4294C79.816 22.7896 79.965 22.1933 80.2632 21.6404C80.5613 21.0876 80.9713 20.6155 81.4931 20.2118C81.99 19.8142 82.5739 19.5036 83.2386 19.2987C83.9094 19.0875 84.63 18.9819 85.394 18.9819C86.1642 18.9819 86.8724 19.0937 87.5308 19.3111C88.1892 19.5347 88.7483 19.8453 89.2203 20.2428C89.6924 20.6466 90.0651 21.1187 90.3322 21.6715C90.6055 22.2243 90.7422 22.8082 90.7422 23.4294H87.1705L87.1829 23.4356Z" fill="white"/>
<path d="M92.6429 34.4052L92.6554 19.1743H96.4507L96.4382 34.4052H92.6429ZM92.6554 16.0747V13.0124H96.4507V16.081H92.6554V16.0747Z" fill="white"/>
<path d="M105.992 34.4115V32.8462H105.917C105.42 33.4053 104.917 33.8401 104.408 34.1382C103.898 34.4364 103.184 34.5855 102.271 34.5855C101.824 34.5855 101.37 34.5296 100.911 34.4177C100.451 34.3059 100.01 34.101 99.5937 33.8028C99.1713 33.5233 98.8297 33.1195 98.5688 32.5853C98.3079 32.0573 98.1775 31.3678 98.1775 30.5293C98.1775 29.6659 98.2645 28.9143 98.4384 28.262C98.6123 27.6098 98.9353 27.0632 99.4074 26.6222C99.8546 26.1998 100.463 25.8892 101.227 25.678C101.998 25.4668 102.973 25.3612 104.165 25.3674C104.29 25.3674 104.426 25.3674 104.575 25.3674C104.725 25.3674 104.861 25.3798 104.985 25.3985C105.11 25.4171 105.259 25.4295 105.433 25.4295C105.607 25.4295 105.793 25.442 105.992 25.4606V23.8704C105.992 23.3486 105.855 22.92 105.582 22.5784C105.308 22.2368 104.811 22.0691 104.097 22.0691C103.6 22.0691 103.147 22.1995 102.737 22.4604C102.327 22.7213 102.06 23.1002 101.936 23.6033H98.252C98.3514 22.2368 98.9229 21.1373 99.9664 20.2987C100.463 19.9012 101.06 19.5844 101.755 19.3546C102.451 19.1247 103.228 19.0129 104.097 19.0129C104.892 19.0129 105.631 19.1123 106.327 19.3173C107.023 19.5161 107.632 19.8204 108.147 20.218C108.644 20.6217 109.042 21.1187 109.334 21.7212C109.632 22.3237 109.781 23.0256 109.781 23.8269V34.4302H105.979L105.992 34.4115ZM105.992 27.8583C105.569 27.7962 105.221 27.7651 104.948 27.7651C104.128 27.7651 103.426 27.9204 102.849 28.231C102.265 28.5416 101.973 29.1068 101.973 29.9267C101.973 30.5106 102.147 30.9765 102.495 31.3368C102.842 31.6971 103.327 31.8772 103.942 31.8772C104.588 31.8772 105.091 31.7095 105.451 31.3678C105.812 31.0262 105.992 30.5479 105.992 29.9267V27.8521V27.8583Z" fill="white"/>
<path d="M34.0487 54.2949V55.618C34.0487 56.2764 33.8934 56.9038 33.5828 57.4939C33.2723 58.084 32.8437 58.612 32.297 59.0716C31.7504 59.5313 31.1106 59.8978 30.3838 60.1649C29.6509 60.432 28.862 60.5686 28.0234 60.5686C27.3029 60.5686 26.5761 60.4879 25.8307 60.3264C25.0853 60.1649 24.4145 59.8853 23.8244 59.4816C23.2281 59.0778 22.7374 58.5623 22.3584 57.9349C21.9733 57.3013 21.7808 56.5 21.7808 55.5186V43.7414C21.787 43.0394 21.9361 42.3872 22.2342 41.7909C22.5324 41.1884 22.9548 40.6728 23.5014 40.2318C24.048 39.7908 24.7002 39.4491 25.4518 39.1944C26.2096 38.946 27.042 38.8217 27.9613 38.8217C29.7441 38.8217 31.1976 39.2938 32.3095 40.238C32.8561 40.6977 33.2847 41.2443 33.589 41.8779C33.8996 42.5115 34.0549 43.1947 34.0549 43.9339V45.1328H30.2596V44.1078C30.2596 43.5053 30.0484 42.9835 29.626 42.5425C29.2036 42.1015 28.6322 41.8841 27.9178 41.8779C26.9737 41.8779 26.3463 42.1139 26.0419 42.5798C25.7314 43.0519 25.5761 43.6482 25.5761 44.3687V55.3012C25.5698 55.9223 25.7376 56.4441 26.073 56.8665C26.4084 57.2889 27.0109 57.5001 27.8744 57.5001C28.1228 57.5001 28.3899 57.4628 28.6757 57.3945C28.9614 57.3262 29.2285 57.2081 29.477 57.0466C29.7006 56.8851 29.8869 56.6677 30.036 56.3882C30.1851 56.1087 30.2596 55.7546 30.2596 55.3384V54.2887H34.0549L34.0487 54.2949Z" fill="white"/>
<path d="M47.1429 53.9408H39.6331V56.0093C39.6331 56.4876 39.8008 56.8603 40.13 57.1211C40.4654 57.382 40.9189 57.5125 41.4841 57.5125C42.2047 57.5125 42.683 57.3448 42.919 57.0031C43.155 56.6615 43.2979 56.3198 43.3476 55.9844H47.1429C47.1429 57.3261 46.6335 58.4069 45.6148 59.2331C45.1179 59.6555 44.5216 59.9847 43.8259 60.2207C43.1302 60.463 42.3475 60.581 41.4841 60.581C40.2915 60.581 39.2852 60.3822 38.4528 59.9785C37.6205 59.5747 36.9869 59.0467 36.5397 58.3883C36.2664 57.9845 36.08 57.5249 35.9806 57.0031C35.8812 56.4813 35.8315 55.9099 35.8315 55.2887V50.2697C35.8315 49.6486 35.8874 49.0771 35.9868 48.5553C36.0862 48.0335 36.2726 47.5739 36.5459 47.1763C36.9931 46.5179 37.6329 45.9837 38.4653 45.5862C39.2976 45.1886 40.3039 44.9836 41.4965 44.9899C42.3662 44.9899 43.1488 45.1079 43.857 45.3501C44.5651 45.5924 45.1614 45.9216 45.6583 46.344C46.6522 47.2447 47.1429 48.3752 47.1429 49.7417V53.947V53.9408ZM39.6268 51.5307H43.3476V49.7914C43.3476 49.2075 43.1799 48.7727 42.8445 48.487C42.509 48.195 42.0556 48.0522 41.4841 48.0522C40.9126 48.0522 40.4592 48.195 40.1238 48.487C39.7883 48.7789 39.6206 49.2137 39.6206 49.7914V51.5369L39.6268 51.5307Z" fill="white"/>
<path d="M48.9752 39.0143H52.7705L52.7581 56.1087C52.7581 56.6926 52.8885 57.0839 53.1494 57.2951C53.4103 57.5063 53.901 57.6429 54.6153 57.6989V60.5811C53.7457 60.5811 52.963 60.5251 52.2673 60.4133C51.5716 60.3015 50.9753 60.0841 50.4846 59.7673C49.9877 59.4692 49.6088 59.0406 49.3541 58.4877C49.0932 57.9349 48.9628 57.2081 48.9628 56.3075L48.9752 39.0019V39.0143Z" fill="white"/>
<path d="M67.0759 53.9532H59.566V56.0217C59.566 56.5 59.7337 56.8727 60.063 57.1336C60.3984 57.3945 60.8518 57.5249 61.4171 57.5249C62.1376 57.5249 62.6159 57.3572 62.852 57.0156C63.088 56.6739 63.2309 56.3323 63.2806 55.9969H67.0759C67.0759 57.3386 66.5665 58.4194 65.5478 59.2455C65.0509 59.6679 64.4546 59.9971 63.7589 60.2332C63.0632 60.4754 62.2805 60.5935 61.4171 60.5935C60.2245 60.5935 59.2182 60.3947 58.3858 59.9909C57.5535 59.5872 56.9199 59.0592 56.4727 58.4008C56.1993 57.997 56.013 57.5373 55.9136 57.0156C55.8142 56.4938 55.7645 55.9223 55.7645 55.3012V50.2822C55.7645 49.661 55.8204 49.0895 55.9198 48.5678C56.0192 48.046 56.2056 47.5863 56.4789 47.1888C56.9261 46.5304 57.5659 45.9962 58.3983 45.5986C59.2306 45.2011 60.2369 44.9961 61.4295 45.0023C62.2991 45.0023 63.0818 45.1265 63.7899 45.3626C64.4981 45.5986 65.0944 45.934 65.5913 46.3564C66.5852 47.2571 67.0759 48.3876 67.0759 49.7542V53.9595V53.9532ZM59.5598 51.5431H63.2806V49.8039C63.2806 49.22 63.1129 48.7852 62.7774 48.4994C62.442 48.2075 61.9886 48.0646 61.4171 48.0646C60.8456 48.0646 60.3922 48.2075 60.0568 48.4994C59.7213 48.7914 59.5536 49.2262 59.5536 49.8039V51.5493L59.5598 51.5431Z" fill="white"/>
<path d="M69.1195 60.4133L69.1319 39.0205H72.9272V46.5614H72.9956C73.4179 46.0583 73.9211 45.6731 74.505 45.406C75.0889 45.1389 75.7535 45.0023 76.4927 45.0023C77.412 45.0023 78.1201 45.1327 78.6295 45.3936C79.1388 45.6545 79.555 45.9837 79.8718 46.3875C80.1203 46.7105 80.2818 47.1267 80.3563 47.6484C80.4309 48.1702 80.4681 48.9777 80.4681 50.0834V55.8788C80.4681 56.7174 80.4122 57.3883 80.3128 57.8914C80.2135 58.3945 80.0519 58.8107 79.8283 59.1524C79.1823 60.1152 78.0767 60.5934 76.5175 60.5934C75.5734 60.5934 74.859 60.4444 74.3621 60.14C73.8652 59.8418 73.3807 59.4692 72.9148 59.0281V60.4071H69.1195V60.4133ZM76.679 49.8722C76.679 49.3939 76.5486 48.9715 76.2877 48.6112C76.0268 48.251 75.5361 48.0708 74.8218 48.0708C74.2751 48.0708 73.8217 48.2261 73.4614 48.5367C73.1012 48.8473 72.921 49.2448 72.921 49.7231V55.6428C72.921 56.2018 73.0887 56.6615 73.4366 57.0094C73.7844 57.3572 74.2441 57.5373 74.8093 57.5373C75.4554 57.5373 75.9274 57.351 76.2256 56.9659C76.5238 56.587 76.6728 56.0838 76.6728 55.4627V49.8722H76.679Z" fill="white"/>
<path d="M89.7297 49.4622C89.7048 48.9404 89.4999 48.5491 89.1147 48.2882C88.7296 48.0273 88.2886 47.8969 87.7979 47.8969C87.2016 47.8969 86.7419 48.0522 86.4189 48.3628C86.0959 48.6733 85.9344 49.0274 85.9344 49.4312C85.9344 49.7107 86.0213 49.9902 86.1953 50.2573C86.3692 50.5306 86.8164 50.7729 87.5308 50.9965L89.7607 51.717C91.1708 52.1581 92.146 52.7606 92.6802 53.5184C93.2144 54.2824 93.4815 55.1086 93.4753 56.0155C93.4753 56.6553 93.3324 57.2516 93.0467 57.8044C92.761 58.3573 92.3696 58.8418 91.8727 59.2579C91.3758 59.6803 90.7795 60.0095 90.0838 60.2456C89.3881 60.4878 88.6302 60.6059 87.8165 60.6059C86.276 60.6059 84.9902 60.2145 83.9467 59.4319C83.4249 59.0529 83.0025 58.5747 82.6857 58.0032C82.3627 57.4317 82.1888 56.7671 82.1639 56.003H85.7356C85.8102 56.4254 85.9903 56.8168 86.276 57.177C86.5618 57.5373 87.0649 57.7175 87.7792 57.7175C88.3259 57.7175 88.8166 57.5746 89.2514 57.2826C89.6862 56.9907 89.9036 56.5869 89.9036 56.0652C89.9036 55.6428 89.767 55.2825 89.4936 54.9843C89.2203 54.6862 88.7234 54.4253 88.0091 54.2017L86.1891 53.6613C84.9964 53.301 84.0647 52.7668 83.3814 52.0525C82.6981 51.3443 82.3565 50.4747 82.3627 49.456C82.3627 48.8162 82.5118 48.2199 82.8099 47.6671C83.1081 47.1142 83.5181 46.6421 84.0398 46.2384C84.5368 45.8408 85.1207 45.5303 85.7853 45.3253C86.4562 45.1141 87.1767 45.0085 87.9407 45.0085C88.711 45.0085 89.4191 45.1203 90.0775 45.3377C90.736 45.5613 91.3012 45.8719 91.7671 46.2694C92.2392 46.6732 92.6119 47.1453 92.879 47.6981C93.1523 48.2509 93.2889 48.8348 93.2889 49.456H89.7173L89.7297 49.4622Z" fill="white"/>
<defs>
<radialGradient id="paint0_radial_195_377" cx="0" cy="0" r="1" gradientUnits="userSpaceOnUse" gradientTransform="translate(8.62656 36.15) scale(17.1306 43.3404)">
<stop stop-color="#FFC501"/>
<stop offset="0.06" stop-color="#FFC501"/>
<stop offset="0.64" stop-color="#EA4420"/>
<stop offset="1" stop-color="#EA4420"/>
</radialGradient>
</defs>
</svg>
