<svg xmlns="http://www.w3.org/2000/svg" width="499" height="830" fill="none" viewBox="0 0 499 830"><path fill="url(#paint0_linear_0_17)" d="M299.992 829.659C192.582 796.594 102.706 722.213 50.136 622.882C-2.4338 523.55 -13.391 407.403 19.6749 299.992C52.7407 192.582 127.121 102.706 226.453 50.1358C325.785 -2.43391 441.931 -13.3911 549.342 19.6747L499.472 181.672C435.026 161.832 365.338 168.407 305.739 199.948C246.139 231.49 201.511 285.416 181.672 349.862C161.832 414.309 168.407 483.997 199.948 543.596C231.49 603.195 285.416 647.823 349.862 667.663L299.992 829.659Z"/><defs><linearGradient id="paint0_linear_0_17" x1="464.369" x2="62.831" y1="25.346" y2="398.338" gradientUnits="userSpaceOnUse"><stop offset=".063" stop-color="#fff" stop-opacity=".08"/><stop offset="1" stop-color="#fff" stop-opacity="0"/></linearGradient></defs></svg>