<svg xmlns="http://www.w3.org/2000/svg" width="223" height="68" fill="none" viewBox="0 0 223 68"><path fill="#FFA43A" d="M58.5736 6.64014C57.9889 4.42108 55.6024 -0.42914 54.9458 0.0305211C54.4733 0.36338 56.4914 4.63506 55.8188 6.02197C55.5064 6.67184 54.8497 6.36276 53.8967 5.95857C52.9436 5.55439 49.7003 4.3339 45.9844 6.64806C42.2604 8.97015 40.883 13.7094 42.2604 19.0589C44.0544 26.0173 45.7921 27.3962 44.3187 27.3408C43.9021 27.3249 41.836 27.0317 39.8499 27.8797C37.8638 28.7277 31.361 32.4525 35.5574 44.0392C36.0619 45.434 36.4383 46.599 36.7186 47.5897C36.7907 47.867 37.1271 48.7864 36.5825 49.1192C36.0379 49.452 35.3812 48.1761 34.7485 46.9873C34.1159 45.7985 15.4723 9.44566 15.4723 9.44566C14.0949 6.86204 11.364 5.10265 8.20863 5.10265C3.67586 5.11057 0 8.74824 0 13.2419C0 14.5336 0.304321 15.7621 0.848894 16.8478L23.6169 61.3795C25.4668 64.8508 28.0535 67.0064 31.9135 67.0064C35.3812 67.0064 38.3683 64.9934 39.7619 62.0848C41.0512 59.7469 41.8681 55.9825 40.2103 49.9276C38.4004 43.318 37.1991 41.5269 37.5916 41.1623C38.032 40.7661 38.6086 41.6061 39.6818 42.1767C39.6818 42.1767 39.6818 42.1767 39.6898 42.1767C41.924 43.4844 44.671 43.6904 47.0174 42.4779C48.3549 41.7884 50.381 40.1003 50.8935 36.9858C51.4061 33.8632 49.6762 30.3603 48.7393 28.3631C46.3528 23.2276 45.0553 19.5582 45.3917 19.2491C45.8322 18.8449 46.2486 19.5582 47.4819 20.2636C49.5241 21.4286 54.7696 22.0705 57.7647 17.9177C60.904 13.5588 58.5736 6.64014 58.5736 6.64014Z"/><path fill="#FFA43A" d="M84.4942 39.4631C84.1752 39.6396 83.7752 39.8001 83.2996 39.9338C82.8238 40.0676 82.386 40.1371 82.0021 40.1371C81.0669 40.1371 80.3426 39.9499 79.8344 39.5807C79.3209 39.2063 79.0668 38.5751 79.0668 37.671V28.8763H83.9536C84.6348 28.8763 84.9807 28.4912 84.9807 27.7261C84.9807 27.5015 84.9483 27.2928 84.878 27.1003C84.8078 26.9076 84.7429 26.7579 84.6726 26.6456H79.0614V22.7564C79.0614 21.9433 78.5857 21.5367 77.6289 21.5367C77.3533 21.5367 77.0991 21.5634 76.8613 21.6223C76.6235 21.6758 76.4451 21.7293 76.3315 21.7721V37.8368C76.3315 39.4631 76.8289 40.6239 77.8181 41.3194C78.8074 42.0201 80.1048 42.368 81.6995 42.368C82.7482 42.368 83.5698 42.2075 84.159 41.8971C84.7537 41.5815 85.0456 41.175 85.0456 40.6774C85.0456 40.4047 84.9861 40.1693 84.8726 39.966C84.7537 39.7681 84.6294 39.5969 84.4942 39.4631Z"/><path fill="#FFA43A" d="M95.5789 25.8647C94.3031 25.8647 93.157 26.0091 92.1462 26.2873C91.1299 26.5709 90.3299 26.9026 89.7353 27.2877C89.2811 27.5765 88.9568 27.8815 88.7622 28.1864C88.5676 28.4913 88.4703 28.9032 88.4703 29.4222V40.8864C88.4703 41.6995 88.9622 42.1061 89.9407 42.1061C90.2163 42.1061 90.465 42.0739 90.6921 42.0204C90.9191 41.9669 91.0921 41.9134 91.2056 41.8707V29.2136C91.7299 28.9194 92.3894 28.6625 93.1894 28.4486C93.9895 28.2346 94.9085 28.1276 95.9572 28.1276C96.3194 28.1276 96.687 28.149 97.0492 28.1971C97.4114 28.2453 97.7086 28.2881 97.9356 28.3308C98.0492 28.1971 98.1411 28.0313 98.2114 27.8441C98.2816 27.6515 98.314 27.4428 98.314 27.2181C98.314 26.3141 97.4006 25.8647 95.5789 25.8647Z"/><path fill="#FFA43A" d="M113.564 26.1324C113.316 26.1324 113.066 26.1645 112.829 26.218C112.591 26.2715 112.413 26.325 112.299 26.3678V39.2549C111.937 39.4582 111.435 39.6561 110.796 39.8486C110.159 40.0413 109.385 40.1375 108.472 40.1375C107.104 40.1375 106.034 39.8273 105.261 39.2067C104.488 38.5862 104.099 37.5431 104.099 36.0772V27.3895C104.099 26.555 103.623 26.1378 102.666 26.1378C102.39 26.1378 102.136 26.1698 101.899 26.2233C101.661 26.2768 101.482 26.3303 101.369 26.3732V36.2164C101.369 38.3347 101.98 39.8914 103.196 40.8811C104.418 41.8761 106.164 42.3683 108.445 42.3683C109.743 42.3683 110.856 42.2346 111.775 41.9618C112.699 41.6889 113.424 41.4107 113.948 41.1165C114.429 40.8491 114.726 40.5709 114.85 40.2873C114.974 40.0091 115.04 39.6294 115.04 39.1532V27.3842C115.035 26.5497 114.542 26.1324 113.564 26.1324Z"/><path fill="#FFA43A" d="M126.308 33.0009L123.951 32.4285C123.157 32.2465 122.583 31.9737 122.243 31.6153C121.903 31.2515 121.73 30.8129 121.73 30.294C121.73 29.5985 122.032 29.0528 122.637 28.6677C123.244 28.2878 124.054 28.0953 125.081 28.0953C126.108 28.0953 126.995 28.2558 127.746 28.566C128.498 28.8816 129.076 29.1758 129.487 29.4487C129.735 29.3363 129.935 29.1651 130.087 28.9405C130.233 28.7158 130.309 28.459 130.309 28.1595C130.309 27.5496 129.816 27.0146 128.838 26.5546C127.859 26.0945 126.574 25.8591 124.973 25.8591C123.973 25.8591 123.098 25.9768 122.356 26.2175C121.616 26.4529 120.995 26.7739 120.491 27.1805C119.989 27.5871 119.622 28.0578 119.379 28.5981C119.14 29.1385 119.021 29.7055 119.021 30.2886C119.021 31.3745 119.341 32.2573 119.978 32.9419C120.616 33.632 121.627 34.1563 123.017 34.5148L125.854 35.2584C127.427 35.6435 128.212 36.4727 128.212 37.762C128.212 39.34 127.027 40.1265 124.66 40.1265C123.611 40.1265 122.675 39.9499 121.859 39.6022C121.038 39.2545 120.324 38.8533 119.708 38.4039C119.411 38.5858 119.189 38.7998 119.043 39.0458C118.891 39.2919 118.821 39.5541 118.821 39.8268C118.821 40.1425 118.962 40.4527 119.249 40.7576C119.535 41.0626 119.935 41.3355 120.443 41.5709C120.956 41.8062 121.573 41.9988 122.308 42.1432C123.038 42.2877 123.832 42.3625 124.698 42.3625C126.725 42.3625 128.277 41.956 129.346 41.1428C130.417 40.3297 130.952 39.2063 130.952 37.762C130.952 36.4781 130.563 35.4563 129.789 34.702C129.017 33.953 127.854 33.386 126.308 33.0009Z"/><path fill="#FFA43A" d="M142.861 39.4631C142.542 39.6396 142.143 39.8001 141.666 39.9338C141.185 40.0676 140.753 40.1371 140.369 40.1371C139.434 40.1371 138.71 39.9499 138.201 39.5807C137.688 39.2063 137.434 38.5751 137.434 37.671V28.8763H142.321C143.002 28.8763 143.347 28.4912 143.347 27.7261C143.347 27.5015 143.315 27.2928 143.245 27.1003C143.174 26.9076 143.11 26.7579 143.039 26.6456H137.434V22.7564C137.434 21.9433 136.958 21.5367 136.001 21.5367C135.725 21.5367 135.472 21.5634 135.234 21.6223C134.996 21.6758 134.818 21.7293 134.704 21.7721V37.8368C134.704 39.4631 135.201 40.6239 136.19 41.3194C137.18 42.0201 138.472 42.368 140.072 42.368C141.12 42.368 141.937 42.2075 142.532 41.8971C143.126 41.5815 143.418 41.175 143.418 40.6774C143.418 40.4047 143.358 40.1693 143.245 39.966C143.12 39.7681 142.996 39.5969 142.861 39.4631Z"/><path fill="#FFA43A" d="M168.012 17.043C167.769 17.1715 168.494 18.3002 168.266 18.7335C168.158 18.9368 167.947 18.9368 167.704 18.878C167.461 18.8191 167.164 18.7603 166.84 18.7603C166.109 18.7603 165.51 18.9903 165.045 19.4557C164.574 19.9158 164.342 20.4775 164.342 21.1302C164.342 21.8041 164.574 22.3765 165.045 22.8366C165.51 23.302 166.136 23.5321 166.84 23.5321C167.542 23.5321 169.153 23.1362 169.472 20.9536C169.791 18.7656 168.255 16.9147 168.012 17.043Z"/><path fill="#FFA43A" d="M161.272 25.9659C160.872 25.693 160.38 25.5593 159.785 25.5593C159.445 25.5593 159.094 25.602 158.742 25.677C158.391 25.7572 158.077 25.8749 157.801 26.0301C157.32 28.0843 156.764 30.1652 156.125 32.273C155.488 34.3807 154.84 36.4296 154.179 38.409H154.044C153.953 38.1147 153.834 37.7509 153.688 37.3123C153.537 36.8736 153.385 36.4082 153.229 35.9268C153.072 35.4452 152.904 34.9478 152.73 34.4396C152.558 33.9313 152.406 33.4552 152.271 33.0005L150.563 27.421C150.358 26.7202 150.066 26.2386 149.693 25.9659C149.32 25.693 148.833 25.5593 148.239 25.5593C147.785 25.5593 147.346 25.6555 146.925 25.8482C146.504 26.0408 146.179 26.2708 145.952 26.5382C146.136 27.2391 146.368 28.0254 146.649 28.9081C146.936 29.7855 147.244 30.7002 147.574 31.6471C147.904 32.5939 148.25 33.5462 148.617 34.5037C148.979 35.4614 149.337 36.3707 149.677 37.2267C150.017 38.0826 150.336 38.8476 150.633 39.527C150.93 40.2011 151.18 40.736 151.385 41.1158C151.591 41.501 151.926 41.7738 152.39 41.945C152.855 42.1162 153.423 42.2018 154.082 42.2018C154.628 42.2018 155.131 42.1429 155.585 42.0306C156.039 41.9182 156.385 41.7738 156.613 41.592C156.931 41.0034 157.283 40.2813 157.672 39.4307C158.061 38.5747 158.445 37.6654 158.834 36.7078C159.223 35.7502 159.596 34.7713 159.963 33.7816C160.326 32.7918 160.651 31.8664 160.937 31.0105C161.218 30.1546 161.45 29.3949 161.618 28.7423C161.79 28.0896 161.872 27.6135 161.872 27.3246C161.872 26.688 161.672 26.2333 161.272 25.9659Z"/><path fill="#FFA43A" d="M166.635 25.7627C166.224 25.7627 165.846 25.7947 165.489 25.8644C165.138 25.9339 164.868 25.9927 164.684 26.0356V40.1744C164.684 40.918 164.873 41.4369 165.246 41.7312C165.619 42.0254 166.218 42.1698 167.041 42.1698C167.451 42.1698 167.829 42.1377 168.187 42.0682C168.538 42.0039 168.808 41.9451 168.987 41.9024V27.758C168.987 27.0144 168.797 26.4955 168.425 26.2013C168.057 25.9071 167.457 25.7627 166.635 25.7627Z"/><path fill="#FFA43A" d="M186.793 27.5386C186.086 26.8271 185.263 26.3028 184.318 25.9498C183.371 25.6021 182.35 25.4255 181.258 25.4255C180.48 25.4255 179.782 25.5111 179.155 25.6769C178.527 25.8481 177.976 26.0568 177.496 26.3028V21.6701C177.496 20.9265 177.301 20.4076 176.917 20.1134C176.527 19.8245 175.939 19.6747 175.139 19.6747C174.706 19.6747 174.311 19.7015 173.96 19.7603C173.609 19.8138 173.339 19.878 173.154 19.9422V38.4784C173.154 38.9973 173.269 39.4414 173.496 39.8158C173.722 40.185 174.074 40.5327 174.554 40.8483C175.193 41.2763 176.003 41.6507 176.982 41.9663C177.96 42.282 179.112 42.4372 180.437 42.4372C181.733 42.4372 182.912 42.2552 183.971 41.8968C185.031 41.533 185.934 40.9928 186.691 40.2705C187.442 39.5484 188.021 38.6603 188.437 37.6011C188.847 36.5419 189.053 35.3008 189.053 33.8778C189.053 32.4548 188.853 31.2244 188.453 30.1759C188.053 29.1274 187.496 28.2501 186.793 27.5386ZM183.479 37.7509C182.707 38.5961 181.679 39.0188 180.403 39.0188C179.744 39.0188 179.161 38.9331 178.658 38.7673C178.155 38.6014 177.76 38.4249 177.463 38.243V29.7854C177.852 29.5393 178.301 29.3146 178.815 29.1113C179.328 28.9081 179.89 28.8064 180.507 28.8064C181.739 28.8064 182.734 29.2183 183.496 30.0261C184.258 30.8392 184.642 32.1231 184.642 33.8832C184.637 35.6164 184.253 36.9057 183.479 37.7509Z"/><path fill="#FFA43A" d="M205.141 27.3996C204.481 26.779 203.681 26.2975 202.751 25.9444C201.817 25.5967 200.789 25.4202 199.676 25.4202C198.584 25.4202 197.546 25.5914 196.567 25.9284C195.589 26.2654 194.73 26.7844 193.989 27.4851C193.248 28.1859 192.659 29.0525 192.227 30.0904C191.794 31.1282 191.578 32.3479 191.578 33.7441C191.578 35.1885 191.799 36.451 192.243 37.5317C192.686 38.6122 193.302 39.5217 194.092 40.2492C194.875 40.9821 195.822 41.5278 196.929 41.8915C198.033 42.2499 199.259 42.4319 200.605 42.4319C201.449 42.4319 202.233 42.3623 202.963 42.2286C203.692 42.0949 204.324 41.9022 204.86 41.6562C205.395 41.4101 205.817 41.1105 206.125 40.7575C206.432 40.4098 206.585 40.0085 206.585 39.5591C206.585 39.1954 206.481 38.8584 206.276 38.5427C206.07 38.2271 205.811 37.9811 205.492 37.7991C204.99 38.1148 204.335 38.4143 203.53 38.6925C202.719 38.9761 201.838 39.1151 200.881 39.1151C199.606 39.1151 198.535 38.8584 197.671 38.3395C196.805 37.8205 196.211 36.9859 195.892 35.8358L205.395 34.4824C205.984 34.3914 206.449 34.1935 206.779 33.8725C207.109 33.5569 207.276 33.0862 207.276 32.4496C207.276 31.4384 207.087 30.4916 206.714 29.625C206.319 28.769 205.8 28.0201 205.141 27.3996ZM195.605 32.8668C195.698 31.5134 196.119 30.4702 196.87 29.7373C197.622 29.0044 198.557 28.6406 199.671 28.6406C200.784 28.6406 201.627 28.9509 202.2 29.5715C202.767 30.192 203.103 30.9195 203.19 31.7541L195.605 32.8668Z"/><path fill="#FFA43A" d="M221.745 34.1667C220.903 33.3428 219.535 32.717 217.643 32.289L215.967 31.8824C215.259 31.7272 214.767 31.524 214.48 31.2726C214.194 31.0265 214.053 30.7055 214.053 30.3257C214.053 29.8068 214.302 29.4055 214.805 29.122C215.308 28.8386 215.999 28.6994 216.892 28.6994C217.324 28.6994 217.762 28.7369 218.206 28.8171C218.649 28.8974 219.07 28.9936 219.47 29.106C219.87 29.2183 220.233 29.3414 220.562 29.4805C220.892 29.6142 221.162 29.7533 221.362 29.8871C221.61 29.7052 221.827 29.4644 222.011 29.1595C222.195 28.8546 222.281 28.5015 222.281 28.095C222.281 27.6669 222.141 27.2872 221.854 26.9608C221.567 26.6345 221.167 26.3564 220.659 26.1156C220.146 25.8802 219.545 25.6983 218.849 25.5753C218.156 25.4522 217.394 25.3881 216.578 25.3881C214.437 25.3881 212.773 25.8481 211.589 26.7576C210.404 27.6669 209.81 28.8599 209.81 30.3257C209.81 31.6096 210.215 32.6367 211.027 33.4017C211.832 34.1667 213.081 34.7445 214.767 35.1242L216.681 35.563C218.048 35.8572 218.73 36.467 218.73 37.3924C218.73 37.9328 218.492 38.3554 218.01 38.6603C217.535 38.9652 216.827 39.115 215.891 39.115C214.8 39.115 213.837 38.9599 213.005 38.6443C212.172 38.3286 211.437 37.9649 210.799 37.5636C210.48 37.767 210.226 38.0237 210.032 38.3394C209.837 38.655 209.74 39.0295 209.74 39.4574C209.74 39.9068 209.897 40.3187 210.199 40.6931C210.507 41.0623 210.94 41.3832 211.497 41.6401C212.053 41.9021 212.712 42.1001 213.481 42.2338C214.242 42.3675 215.092 42.4371 216.026 42.4371C218.308 42.4371 220.038 41.9931 221.221 41.0997C222.406 40.2117 223 38.976 223 37.3978C223.011 36.0657 222.589 34.9905 221.745 34.1667Z"/></svg>