<svg xmlns="http://www.w3.org/2000/svg" width="63" height="261" fill="none" viewBox="0 0 63 261"><path fill="url(#paint0_radial_6_733)" d="M24.2419 230.23C12.3919 209.02 8.64194 175.64 10.5119 165.35C10.5119 165.35 27.0419 212.45 34.8419 225.87C39.5819 234.03 39.0219 241.73 35.1819 241.73C32.7119 241.73 28.8819 238.54 24.2419 230.24M22.6819 33.4C41.0819 6.26 38.5919 45.25 32.0419 61.47L8.96194 127.29C8.96194 127.29 -3.87806 72.57 22.6819 33.4M48.2619 0.02C33.9119 0.95 -17.5581 42.13 6.15194 146.32C6.15194 146.32 -4.49806 233.2 41.7119 259.87C49.8219 264.55 68.8519 252.07 52.3219 226.8C35.7919 201.53 13.0119 165.03 13.6419 148.19C13.6419 148.19 15.6319 124.67 47.6419 72.7C71.3419 34.22 62.8519 0 48.8319 0C48.6419 0 48.4519 0 48.2619 0.02Z"/><defs><radialGradient id="paint0_radial_6_733" cx="0" cy="0" r="1" gradientTransform="translate(31.2519 130.963) scale(62.06 157.012)" gradientUnits="userSpaceOnUse"><stop stop-color="#FFC501"/><stop offset=".06" stop-color="#FFC501"/><stop offset=".64" stop-color="#EA4420"/><stop offset="1" stop-color="#EA4420"/></radialGradient></defs></svg>